<?xml version="1.0" encoding="UTF-8"?>
<svg version="1.1" xmlns="http://www.w3.org/2000/svg" width="500" height="71">
<path d="M0 0 C0.47308594 0.39058594 0.94617188 0.78117188 1.43359375 1.18359375 C1.43359375 1.84359375 1.43359375 2.50359375 1.43359375 3.18359375 C2.09359375 3.18359375 2.75359375 3.18359375 3.43359375 3.18359375 C4.90625 5.23046875 4.90625 5.23046875 6.49609375 7.93359375 C7.02332031 8.8153125 7.55054688 9.69703125 8.09375 10.60546875 C11.91538304 17.95904837 11.78171377 27.74303046 9.41015625 35.5546875 C5.62891985 43.75432998 -0.04736741 50.53347121 -8.50390625 54.12109375 C-17.50720393 56.83806524 -25.76247333 56.66724957 -34.56640625 53.18359375 C-43.24568539 47.9320478 -48.99728065 41.05375484 -51.56640625 31.18359375 C-52.76408364 20.72787009 -51.16890684 12.69330054 -45.44140625 3.93359375 C-31.79360914 -9.12082087 -15.55549999 -9.73355847 0 0 Z M-40.56640625 7.18359375 C-44.88166379 13.08387859 -47.54884436 19.36006168 -47.015625 26.7421875 C-45.53045949 34.81373921 -42.30940792 41.32295966 -35.56640625 46.18359375 C-28.28771227 50.30614816 -21.01369737 51.67066446 -12.890625 49.453125 C-4.33095682 46.34628248 0.16413209 41.03283481 4.43359375 33.18359375 C6.45309695 27.12508415 6.28313182 20.44756683 3.93359375 14.49609375 C0.87347879 8.47318197 -3.94539752 3.12894579 -10.12890625 0.24609375 C-21.76899173 -3.35175085 -31.39885174 -0.95119613 -40.56640625 7.18359375 Z " fill="#7974DF" transform="translate(112.56640625,10.81640625)"/>
<path d="M0 0 C1.94788735 0.97961273 3.88934329 1.97268577 5.8125 3 C5.8125 6.3 5.8125 9.6 5.8125 13 C2.8125 10 2.8125 10 1.625 7.5625 C-0.97515121 3.88642415 -3.89547071 2.2741962 -8.1875 1 C-13.10691075 0.57619941 -16.35424869 1.49079087 -20.5625 4.0625 C-24.31746863 8.26448871 -26.07082213 11.85455897 -26.28125 17.52734375 C-25.88945989 24.04085427 -24.04389469 28.14360531 -19.375 32.8125 C-15.76763443 34.77078417 -12.23516131 35.60010668 -8.21484375 34.421875 C-4.95850041 33.10197268 -4.95850041 33.10197268 -2.1875 31 C-2.11491054 28.81360547 -2.10376217 26.62499611 -2.125 24.4375 C-2.13402344 23.23996094 -2.14304687 22.04242188 -2.15234375 20.80859375 C-2.16394531 19.88175781 -2.17554688 18.95492188 -2.1875 18 C0.7825 18 3.7525 18 6.8125 18 C6.4825 24.6 6.1525 31.2 5.8125 38 C4.8225 37.34 3.8325 36.68 2.8125 36 C0.02269779 36.30160024 -2.26559093 37.03087316 -4.875 38.0625 C-10.83363373 39.74890577 -16.69718622 39.99974734 -22.4375 37.4375 C-27.59487323 34.48297242 -31.05803279 30.41295267 -33.5625 25.0625 C-35.12333247 17.41442091 -34.37612454 11.62586514 -30.1875 5 C-21.63697534 -4.50283428 -11.30155571 -5.22558301 0 0 Z " fill="#FAFAFA" transform="translate(276.1875,10)"/>
<path d="M0 0 C1.65 0 3.3 0 5 0 C5.33 1.32 5.66 2.64 6 4 C6.66386719 3.68804688 7.32773437 3.37609375 8.01171875 3.0546875 C8.89472656 2.66539063 9.77773438 2.27609375 10.6875 1.875 C11.55761719 1.48054688 12.42773438 1.08609375 13.32421875 0.6796875 C16.65155624 -0.1655048 18.02239672 0.3869202 21 2 C21.66 2.66 22.32 3.32 23 4 C23.50789063 3.68804688 24.01578125 3.37609375 24.5390625 3.0546875 C30.16034985 -0.12439261 30.16034985 -0.12439261 34.375 0.5 C37.32948071 2.18827469 37.79967157 2.9111095 39 6 C39.31884766 8.38183594 39.31884766 8.38183594 39.4140625 10.984375 C39.47207031 12.38623047 39.47207031 12.38623047 39.53125 13.81640625 C39.5621875 14.78449219 39.593125 15.75257812 39.625 16.75 C39.68300781 18.22533203 39.68300781 18.22533203 39.7421875 19.73046875 C39.83628426 22.15346037 39.92192328 24.57644796 40 27 C37.36 27 34.72 27 32 27 C32 20.07 32 13.14 32 6 C27.89153477 4.51190647 27.89153477 4.51190647 24 7 C24 13.6 24 20.2 24 27 C21.36 27 18.72 27 16 27 C16 20.07 16 13.14 16 6 C11.89153477 4.51190647 11.89153477 4.51190647 8 7 C8 13.6 8 20.2 8 27 C5.36 27 2.72 27 0 27 C0 18.09 0 9.18 0 0 Z " fill="#FBFBFB" transform="translate(301,21)"/>
<path d="M0 0 C1.65 0 3.3 0 5 0 C5.66 1.32 6.32 2.64 7 4 C7.556875 3.525625 8.11375 3.05125 8.6875 2.5625 C11.34393584 0.76761092 12.79399406 0.14911656 16 0 C19.72389853 0.9799733 21.92339881 1.69028858 24.37109375 4.66796875 C26.96701345 9.16816172 27.41986746 12.86150884 26.55078125 17.953125 C25.37178651 22.33463736 23.74396873 24.50402084 20 27 C15.79115555 27.5968343 12.14215294 27.66857733 8.4375 25.5 C7.963125 25.005 7.48875 24.51 7 24 C7.33 22.68 7.66 21.36 8 20 C8.66 20 9.32 20 10 20 C11.625 22 11.625 22 13 24 C15.45224694 23.89386164 15.45224694 23.89386164 18 23 C20.60660627 18.90390443 20.29774446 14.68947527 20 10 C19.56590267 7.5413214 19.56590267 7.5413214 18 6 C15.08995097 4.91776634 15.08995097 4.91776634 12 5 C9.1703799 6.51586791 8.91291117 8.26984825 7.9296875 11.31640625 C6.52471429 17.15351533 6.78614506 23.03304903 6.875 29 C6.88402344 30.15628906 6.89304687 31.31257813 6.90234375 32.50390625 C6.92575078 35.33615647 6.95854005 38.16796619 7 41 C4.69 41 2.38 41 0 41 C0 27.47 0 13.94 0 0 Z " fill="#FBFBFB" transform="translate(342,21)"/>
<path d="M0 0 C1.9375 0.8125 1.9375 0.8125 4 2 C4.33 2.99 4.66 3.98 5 5 C3 8 3 8 0.875 8.6875 C0.25625 8.790625 -0.3625 8.89375 -1 9 C-0.484375 9.99 0.03125 10.98 0.5625 12 C2.33273163 16.22132159 2.54793958 19.66236711 1 24 C-1.61879142 28.09688229 -4.45543658 31.13805266 -9 33 C-14.24650092 33.48578712 -17.57633272 32.8850004 -22 30 C-25.26748907 27.15870515 -26.71886356 25.64281467 -27.44921875 21.375 C-27.62907533 16.81036406 -27.31351317 13.67525914 -25.375 9.5 C-21.49916207 5.4201706 -18.07765818 3.84998117 -12.5 3.625 C-8.40543968 3.74970742 -5.51921504 4.83432921 -2 7 C-2.226875 6.401875 -2.45375 5.80375 -2.6875 5.1875 C-2.790625 4.465625 -2.89375 3.74375 -3 3 C-1.5625 1.25 -1.5625 1.25 0 0 Z M-20 12 C-22.33909307 15.5086396 -22.41291057 16.87089433 -22 21 C-20.23526445 24.71156874 -20.23526445 24.71156874 -17 27 C-11.10388111 27.60706074 -11.10388111 27.60706074 -6 24.9375 C-3.48069765 21.23727467 -3.2933659 19.3968344 -4 15 C-5.40878096 12.0098357 -5.40878096 12.0098357 -8 10 C-13.06691154 8.52598937 -15.85484288 8.68387431 -20 12 Z " fill="#736EE9" transform="translate(105,17)"/>
<path d="M0 0 C2.15749784 3.23624676 2.28360488 4.34394066 2.4140625 8.10546875 C2.45273438 9.08837891 2.49140625 10.07128906 2.53125 11.08398438 C2.5621875 12.10814453 2.593125 13.13230469 2.625 14.1875 C2.66367188 15.22326172 2.70234375 16.25902344 2.7421875 17.32617188 C2.83648296 19.88393622 2.92208202 22.44169287 3 25 C1.02 25 -0.96 25 -3 25 C-3.66 23.68 -4.32 22.36 -5 21 C-5.66 21.66 -6.32 22.32 -7 23 C-11.13665594 25.75777063 -13.08692938 25.62388198 -18 25 C-20.5 23.5 -20.5 23.5 -22 21 C-22.76969998 17.08735844 -22.5858106 14.08793398 -20.6875 10.5625 C-17.00999699 8.42441685 -13.66418914 8.41993152 -9.4609375 8.2734375 C-6.82328776 8.23975113 -6.82328776 8.23975113 -5 6 C-5 4.68 -5 3.36 -5 2 C-10.41390868 2.46671627 -14.20517932 3.24297811 -19 6 C-22 2.25 -22 2.25 -22 0 C-6.59727098 -3.09482963 -6.59727098 -3.09482963 0 0 Z M-9.4375 10.875 C-10.64212891 11.11863281 -10.64212891 11.11863281 -11.87109375 11.3671875 C-14.19012105 11.87257224 -14.19012105 11.87257224 -16 14 C-16.16681109 17.08347826 -16.16681109 17.08347826 -16 20 C-13.525 20.99 -13.525 20.99 -11 22 C-7.31959133 19.67553136 -5.7005094 17.92034525 -4.6875 13.75 C-4.460625 12.5125 -4.23375 11.275 -4 10 C-5.84620162 10 -7.63664348 10.50042184 -9.4375 10.875 Z " fill="#F9FAFA" transform="translate(238,23)"/>
<path d="M0 0 C1.65 0 3.3 0 5 0 C5.33 1.32 5.66 2.64 6 4 C6.969375 3.505 7.93875 3.01 8.9375 2.5 C13.15096002 0.69790916 17.47600111 0.10572115 22 1 C24.27694827 2.70291597 24.93296247 3.61984309 25.43237305 6.4519043 C25.45855713 7.39976807 25.48474121 8.34763184 25.51171875 9.32421875 C25.56489258 10.86625977 25.56489258 10.86625977 25.61914062 12.43945312 C25.64169922 13.51130859 25.66425781 14.58316406 25.6875 15.6875 C25.73874023 17.31268555 25.73874023 17.31268555 25.79101562 18.97070312 C25.8735456 21.6470322 25.94267937 24.32303159 26 27 C23.36 27 20.72 27 18 27 C18 19.74 18 12.48 18 5 C11.41682119 5.43042462 11.41682119 5.43042462 7 9 C6.51753797 12.07764088 6.62512205 15.0823618 6.75 18.1875 C6.77707031 19.4549707 6.77707031 19.4549707 6.8046875 20.74804688 C6.85179414 22.83251573 6.92353767 24.91640144 7 27 C4.69 27 2.38 27 0 27 C0 18.09 0 9.18 0 0 Z " fill="#FBFBFB" transform="translate(146,21)"/>
<path d="M0 0 C2.93249509 1.31639058 3.85071346 2.40983417 6 5 C7.1875 8.5 7.1875 8.5 7 12 C4.32601035 16.01098447 1.74109927 17.27661012 -2.8125 18.3125 C-4.20517508 18.56013717 -5.60031261 18.79568833 -7 19 C-7 19.99 -7 20.98 -7 22 C-5.741875 21.855625 -4.48375 21.71125 -3.1875 21.5625 C-2.12595703 21.44068359 -2.12595703 21.44068359 -1.04296875 21.31640625 C1.19396393 21.02829265 1.19396393 21.02829265 4 20 C4.33 19.01 4.66 18.02 5 17 C5.66 17.33 6.32 17.66 7 18 C5.70989008 20.87793751 4.42638194 22.96183917 2 25 C-2.93933165 26.64644388 -7.88683386 26.75134796 -12.8125 25 C-15.96402473 22.11860596 -17.72310549 19.07104015 -19 15 C-19 9.55258127 -17.41896072 6.20043745 -14 2 C-9.58154136 -0.750938 -5.04798571 -0.76316004 0 0 Z M-13 5 C-14.13878004 9.22975444 -14.26715049 11.36116187 -12.5625 15.4375 C-11.7890625 16.7059375 -11.7890625 16.7059375 -11 18 C-9.55903414 17.57405412 -8.12231288 17.13373367 -6.6875 16.6875 C-5.88699219 16.44386719 -5.08648437 16.20023438 -4.26171875 15.94921875 C-1.86395448 14.94290318 -0.59340864 14.04203826 1 12 C1 8.4472967 0.23634955 7.24291482 -2.25 4.6875 C-6.59760241 2.01965307 -8.79222033 2.19481355 -13 5 Z " fill="#FAFBFA" transform="translate(414,22)"/>
<path d="M0 0 C1.03382813 0.07863281 2.06765625 0.15726563 3.1328125 0.23828125 C5.875 0.6875 5.875 0.6875 8.875 2.6875 C7.225 4.3375 5.575 5.9875 3.875 7.6875 C3.13056641 7.23697266 3.13056641 7.23697266 2.37109375 6.77734375 C-2.68346884 3.94793964 -5.48844696 3.27836174 -11.125 4.6875 C-11.125 5.6775 -11.125 6.6675 -11.125 7.6875 C-10.568125 7.85765625 -10.01125 8.0278125 -9.4375 8.203125 C3.26716332 12.23771403 3.26716332 12.23771403 7.9375 16.625 C8.875 18.6875 8.875 18.6875 8.875 21.25 C7.50981655 24.57763466 6.11337843 25.16611416 2.875 26.6875 C-0.75390625 27.05078125 -0.75390625 27.05078125 -4.6875 27 C-5.98816406 26.99613281 -7.28882813 26.99226563 -8.62890625 26.98828125 C-11.77435081 26.71766758 -13.50804656 26.35888757 -16.125 24.6875 C-15.135 23.0375 -14.145 21.3875 -13.125 19.6875 C-8.125 21.6875 -8.125 21.6875 -5.75 22.875 C-2.28774469 23.94665045 0.36032972 23.37665104 3.875 22.6875 C0.84487203 19.24947019 -1.84939948 17.76947219 -6.125 16.1875 C-10.35114259 14.62382724 -13.27680653 13.25458845 -16.125 9.6875 C-16.125 6.17557606 -15.83655499 4.42446766 -13.375 1.875 C-8.97348454 -0.44802205 -4.88234336 -0.40992106 0 0 Z " fill="#F9FAFA" transform="translate(189.125,21.3125)"/>
<path d="M0 0 C1.56079093 2.34118639 2.58327699 4.2792825 3.6875 6.8125 C6.71382736 12.86515473 11.05467559 16.50349957 17.375 18.875 C26.53375463 21.45863518 33.35179428 19.620931 42 16 C42.495 16.99 42.495 16.99 43 18 C44.32 18 45.64 18 47 18 C42.00609986 23.77419704 36.73373856 25.74583238 29.25 26.875 C19.83444054 27.54030835 11.95271623 24.88934231 4.8359375 18.76171875 C0.87962459 14.9653419 -1.93621698 11.10514747 -4 6 C-3.6875 3.625 -3.6875 3.625 -3 2 C-2.34 3.65 -1.68 5.3 -1 7 C-0.34 6.01 0.32 5.02 1 4 C0.34 3.67 -0.32 3.34 -1 3 C-0.67 2.01 -0.34 1.02 0 0 Z " fill="#615DE4" transform="translate(66,40)"/>
<path d="M0 0 C0.94101562 0.09023438 1.88203125 0.18046875 2.8515625 0.2734375 C5.375 0.625 5.375 0.625 8.375 1.625 C6.625 6.5 6.625 6.5 4.375 7.625 C2.7109375 6.84765625 2.7109375 6.84765625 0.75 5.6875 C-3.61355968 3.36186654 -6.73750654 3.27589332 -11.625 3.625 C-10.89731491 6.95757872 -10.89731491 6.95757872 -7.38671875 8.34375 C-6.03326178 8.9479481 -4.6749178 9.54128873 -3.3125 10.125 C5.59700731 14.00754457 5.59700731 14.00754457 8.375 16.625 C8.9375 19.5625 8.9375 19.5625 8.375 22.625 C5.51517267 25.63648484 3.90841054 26.56241469 -0.25390625 27.05078125 C-1.55199219 27.01339844 -2.85007812 26.97601563 -4.1875 26.9375 C-5.48816406 26.91300781 -6.78882813 26.88851562 -8.12890625 26.86328125 C-10.81691952 26.68007588 -13.07334324 26.42361013 -15.625 25.625 C-14.625 23.625 -13.625 21.625 -12.625 19.625 C-7.625 21.625 -7.625 21.625 -5.25 22.75 C-1.95829436 23.84723521 0.92919977 23.76012942 4.375 23.625 C3.84721452 21.66212614 3.84721452 21.66212614 2.375 19.625 C0.06864412 18.46893189 -2.09662655 17.51586348 -4.5 16.625 C-8.96211032 14.9505586 -12.55460301 13.42716236 -15.625 9.625 C-16.1875 7.125 -16.1875 7.125 -15.625 4.625 C-10.91600288 -0.21853989 -6.48179451 -0.66067878 0 0 Z " fill="#FAFAFA" transform="translate(385.625,21.375)"/>
<path d="M0 0 C2.97 0 5.94 0 9 0 C9 13.2 9 26.4 9 40 C6.03 40 3.06 40 0 40 C0 26.8 0 13.6 0 0 Z " fill="#FAFBFB" transform="translate(136,8)"/>
<path d="M0 0 C0.99 0 1.98 0 3 0 C3 1.98 3 3.96 3 6 C4.65 6 6.3 6 8 6 C8.33 6.99 8.66 7.98 9 9 C7.02 9 5.04 9 3 9 C3.33 15.6 3.66 22.2 4 29 C5.65 28.34 7.3 27.68 9 27 C9.33 27.99 9.66 28.98 10 30 C6.21981549 32.66836554 3.63908179 33.61854424 -1 33 C-3.16926659 29.74610012 -3.24080049 28.86604043 -3.1953125 25.11328125 C-3.18886719 24.17548828 -3.18242187 23.23769531 -3.17578125 22.27148438 C-3.15902344 21.29501953 -3.14226562 20.31855469 -3.125 19.3125 C-3.11597656 18.32443359 -3.10695312 17.33636719 -3.09765625 16.31835938 C-3.0740843 13.87866235 -3.04118022 11.43945303 -3 9 C-3.99 9 -4.98 9 -6 9 C-6 8.01 -6 7.02 -6 6 C-5.38125 5.7525 -4.7625 5.505 -4.125 5.25 C-1.64931313 3.79371361 -1.04874998 2.62187494 0 0 Z " fill="#F9FAFA" transform="translate(205,15)"/>
<path d="M0 0 C2.31 0 4.62 0 7 0 C7 13.2 7 26.4 7 40 C5.02 40 3.04 40 1 40 C0.67 26.8 0.34 13.6 0 0 Z " fill="#FCFDFD" transform="translate(284,8)"/>
<path d="M0 0 C-2.51027705 2.5999298 -4.9863684 4.99091227 -8 7 C-8.66 7 -9.32 7 -10 7 C-10.268125 7.680625 -10.53625 8.36125 -10.8125 9.0625 C-12 12 -12 12 -13.5625 15 C-15.98055697 20.5603036 -16.96723716 28.39766159 -15.390625 34.26953125 C-15.26171875 34.84058594 -15.1328125 35.41164062 -15 36 C-15.66 36.66 -16.32 37.32 -17 38 C-17.99 34.535 -17.99 34.535 -19 31 C-19.66 31 -20.32 31 -21 31 C-21.54516586 20.49041377 -21.07870082 11.95031196 -14.4375 3.4375 C-12 1 -12 1 -9 0 C-8.01 0 -7.02 0 -6 0 C-3 -1 -3 -1 0 0 Z " fill="#6F65ED" transform="translate(82,11)"/>
<path d="M0 0 C0.47308594 0.39058594 0.94617188 0.78117188 1.43359375 1.18359375 C1.43359375 1.84359375 1.43359375 2.50359375 1.43359375 3.18359375 C2.09359375 3.51359375 2.75359375 3.84359375 3.43359375 4.18359375 C2.44359375 4.18359375 1.45359375 4.18359375 0.43359375 4.18359375 C0.43359375 3.52359375 0.43359375 2.86359375 0.43359375 2.18359375 C-0.55640625 2.18359375 -1.54640625 2.18359375 -2.56640625 2.18359375 C-2.89640625 2.84359375 -3.22640625 3.50359375 -3.56640625 4.18359375 C-4.20707031 3.90644531 -4.84773438 3.62929687 -5.5078125 3.34375 C-13.73108808 -0.09997644 -19.67005373 -1.31464397 -28.4296875 0.7109375 C-30.75295643 1.22485988 -32.68653894 1.18059043 -35.06640625 1.12109375 C-37.5661734 1.00651057 -37.5661734 1.00651057 -39.56640625 2.18359375 C-39.33203125 0.3203125 -39.33203125 0.3203125 -38.56640625 -1.81640625 C-25.93244056 -10.03892524 -12.08706345 -7.56325023 0 0 Z " fill="#8280DB" transform="translate(112.56640625,10.81640625)"/>
<path d="M0 0 C2.64 0 5.28 0 8 0 C8 8.91 8 17.82 8 27 C5.36 27 2.72 27 0 27 C0 18.09 0 9.18 0 0 Z " fill="#FAFBFB" transform="translate(292,21)"/>
<path d="M0 0 C0.66 0.66 1.32 1.32 2 2 C3.32 2 4.64 2 6 2 C-0.35009556 8.70287864 -0.35009556 8.70287864 -5.16650391 9.24291992 C-5.92882324 9.23881104 -6.69114258 9.23470215 -7.4765625 9.23046875 C-8.72953125 9.22756836 -8.72953125 9.22756836 -10.0078125 9.22460938 C-11.30332031 9.20624023 -11.30332031 9.20624023 -12.625 9.1875 C-13.49640625 9.18685547 -14.3678125 9.18621094 -15.265625 9.18554688 C-21.71881132 9.14059434 -21.71881132 9.14059434 -24 8 C-23.67 7.01 -23.34 6.02 -23 5 C-20.21631489 3.92147265 -17.81478555 3.98681353 -14.875 4.1875 C-9.35527389 4.2885266 -4.93120841 2.30603483 0 0 Z " fill="#5751F3" transform="translate(107,56)"/>
<path d="M0 0 C0.33 0 0.66 0 1 0 C1.66 2.31 2.32 4.62 3 7 C3.33 4.69 3.66 2.38 4 0 C4.66 0.33 5.32 0.66 6 1 C5.78803405 7.04102958 4.72258153 10.07272479 0.66796875 14.5546875 C-2.3764528 17.19271085 -4.52126101 17.96640428 -8.5625 18.25 C-12 18 -12 18 -15 16 C-13.7625 16.04125 -12.525 16.0825 -11.25 16.125 C-7.98362038 16.13658291 -5.7853053 15.8568702 -3 14 C-4.03406673 12.74050951 -4.03406673 12.74050951 -6.28515625 12.90234375 C-7.20167969 12.91394531 -8.11820312 12.92554688 -9.0625 12.9375 C-9.98160156 12.94652344 -10.90070313 12.95554687 -11.84765625 12.96484375 C-12.55792969 12.97644531 -13.26820312 12.98804688 -14 13 C-14 12.67 -14 12.34 -14 12 C-13.09507813 11.96132813 -13.09507813 11.96132813 -12.171875 11.921875 C-8.40067298 11.65424131 -5.71209714 11.46286314 -2.5 9.375 C-0.55126574 6.28950409 -0.27719315 3.60351091 0 0 Z " fill="#6E69E1" transform="translate(101,32)"/>
<path d="M0 0 C0.33 0 0.66 0 1 0 C1 2.31 1 4.62 1 7 C0.34 7 -0.32 7 -1 7 C-0.896875 8.03125 -0.79375 9.0625 -0.6875 10.125 C-1.09332558 15.15723716 -2.54970448 16.46344709 -6 20 C-7.32 19.67 -8.64 19.34 -10 19 C-10.33 19.66 -10.66 20.32 -11 21 C-11.33 19.68 -11.66 18.36 -12 17 C-11.01 16.67 -10.02 16.34 -9 16 C-7.91568906 14.25132517 -7.91568906 14.25132517 -7 12 C-6 10 -5 8 -4 6 C-3.01 6 -2.02 6 -1 6 C-1.020625 5.195625 -1.04125 4.39125 -1.0625 3.5625 C-1 1 -1 1 0 0 Z " fill="#6963EF" transform="translate(120,38)"/>
<path d="M0 0 C-2.51027705 2.5999298 -4.9863684 4.99091227 -8 7 C-8.66 7 -9.32 7 -10 7 C-10.66 8.32 -11.32 9.64 -12 11 C-12.33 10.34 -12.66 9.68 -13 9 C-13.928125 9.99 -13.928125 9.99 -14.875 11 C-17 13 -17 13 -19 13 C-17.6351911 7.78891146 -15.65575714 4.83408676 -12 1 C-9 0 -9 0 -6 0 C-3 -1 -3 -1 0 0 Z " fill="#766FDC" transform="translate(82,11)"/>
<path d="M0 0 C0 0.99 0 1.98 0 3 C-3.12498063 3.02895976 -6.2499269 3.04678483 -9.375 3.0625 C-10.26445313 3.07087891 -11.15390625 3.07925781 -12.0703125 3.08789062 C-13.34648438 3.09272461 -13.34648438 3.09272461 -14.6484375 3.09765625 C-15.82672119 3.10551147 -15.82672119 3.10551147 -17.02880859 3.11352539 C-19 3 -19 3 -21 2 C-21 1.34 -21 0.68 -21 0 C-13.45963613 -2.11659337 -7.51352403 -2.93210694 0 0 Z " fill="#837DFB" transform="translate(102,7)"/>
<path d="M0 0 C1.9375 0.8125 1.9375 0.8125 4 2 C4.33 2.99 4.66 3.98 5 5 C2.7629196 8.3556206 2.57482962 8.19278041 -1 9 C-1.33 9.66 -1.66 10.32 -2 11 C-2.33 10.01 -2.66 9.02 -3 8 C-4.32 8 -5.64 8 -7 8 C-7.33 7.01 -7.66 6.02 -8 5 C-6.02 5.66 -4.04 6.32 -2 7 C-2.3403125 6.1028125 -2.3403125 6.1028125 -2.6875 5.1875 C-2.790625 4.465625 -2.89375 3.74375 -3 3 C-1.5625 1.25 -1.5625 1.25 0 0 Z " fill="#716BDF" transform="translate(105,17)"/>
<path d="M0 0 C0.66 0.33 1.32 0.66 2 1 C0.70989008 3.87793751 -0.57361806 5.96183917 -3 8 C-5.88211302 8.96070434 -7.69850044 9.10581883 -10.6875 9.0625 C-11.89986328 9.04896484 -11.89986328 9.04896484 -13.13671875 9.03515625 C-14.05904297 9.01775391 -14.05904297 9.01775391 -15 9 C-11.16269008 5.28647428 -8.01223936 4.34451871 -2.890625 3.58984375 C-2.26671875 3.39519531 -1.6428125 3.20054688 -1 3 C-0.67 2.01 -0.34 1.02 0 0 Z " fill="#F4F6F5" transform="translate(419,39)"/>
<path d="M0 0 C4.95 0 9.9 0 15 0 C15.33 0.99 15.66 1.98 16 3 C12.55824478 5.14699969 10.2279708 5.09856795 6.25 4.625 C4.77273437 4.45871094 4.77273437 4.45871094 3.265625 4.2890625 C2.14414063 4.14597656 2.14414063 4.14597656 1 4 C0.67 2.68 0.34 1.36 0 0 Z " fill="#6A65F8" transform="translate(83,44)"/>
<path d="M0 0 C3.96370168 3.96370168 5.19447172 9.2890195 5.375 14.75 C5.26333152 18.34200279 4.6812913 20.43042917 2 23 C2 21.35 2 19.7 2 18 C2.66 18 3.32 18 4 18 C3.67 16.02 3.34 14.04 3 12 C2.67 13.65 2.34 15.3 2 17 C1.34 17 0.68 17 0 17 C0 11.39 0 5.78 0 0 Z " fill="#6F69E2" transform="translate(117,27)"/>
<path d="M0 0 C0.99 0.66 1.98 1.32 3 2 C3 2.66 3 3.32 3 4 C3.66 4.33 4.32 4.66 5 5 C4.01 5 3.02 5 2 5 C2 4.34 2 3.68 2 3 C1.01 3 0.02 3 -1 3 C-1.33 3.66 -1.66 4.32 -2 5 C-4.4375 4.25 -4.4375 4.25 -7 3 C-7.8125 0.875 -7.8125 0.875 -8 -1 C-4.3286919 -2.22376937 -3.40346492 -1.61664584 0 0 Z " fill="#827CEF" transform="translate(111,10)"/>
<path d="M0 0 C0.66 0.66 1.32 1.32 2 2 C3.32 2 4.64 2 6 2 C0.85714286 7.57142857 0.85714286 7.57142857 -3 8 C-3.1875 5.125 -3.1875 5.125 -3 2 C-2.01 1.34 -1.02 0.68 0 0 Z " fill="#5C59E0" transform="translate(107,56)"/>
<path d="M0 0 C2.33333333 0 4.66666667 0 7 0 C7 0.66 7 1.32 7 2 C7.66 2 8.32 2 9 2 C9 3.65 9 5.3 9 7 C6 7 6 7 4.39453125 5.46875 C3.87246094 4.8190625 3.35039063 4.169375 2.8125 3.5 C2.28269531 2.8503125 1.75289063 2.200625 1.20703125 1.53125 C0.80871094 1.0259375 0.41039063 0.520625 0 0 Z " fill="#7E68E7" transform="translate(106,13)"/>
<path d="M0 0 C2.33301986 0.03824623 4.66711508 0.04574284 7 0 C7 0.33 7 0.66 7 1 C5.37548581 1.33569297 3.75037083 1.6684796 2.125 2 C0.76761719 2.2784375 0.76761719 2.2784375 -0.6171875 2.5625 C-3.02266111 3.00416073 -5.05739153 2.99856521 -7.5 2.9375 C-9.99976715 2.82291682 -9.99976715 2.82291682 -12 4 C-11.67 2.68 -11.34 1.36 -11 0 C-6.90624623 -0.85683218 -4.05078229 -0.88919611 0 0 Z " fill="#7C76E0" transform="translate(85,9)"/>
<path d="M0 0 C0.66 0.33 1.32 0.66 2 1 C2 2.32 2 3.64 2 5 C2.66 5 3.32 5 4 5 C4 7.64 4 10.28 4 13 C3.01 13.495 3.01 13.495 2 14 C1.87625 12.865625 1.7525 11.73125 1.625 10.5625 C1.41875 9.386875 1.2125 8.21125 1 7 C0.34 6.67 -0.32 6.34 -1 6 C-1 2 -1 2 0 0 Z " fill="#7971FA" transform="translate(117,20)"/>
<path d="M0 0 C0 0.99 0 1.98 0 3 C-0.99 3.495 -0.99 3.495 -2 4 C-2.46954261 7.04581269 -2.46954261 7.04581269 -2.625 10.5625 C-2.69976562 11.76003906 -2.77453125 12.95757812 -2.8515625 14.19140625 C-2.90054687 15.11824219 -2.94953125 16.04507813 -3 17 C-3.33 17 -3.66 17 -4 17 C-4.33 12.05 -4.66 7.1 -5 2 C-2 0 -2 0 0 0 Z " fill="#F4F4F4" transform="translate(311,24)"/>
<path d="M0 0 C1.67542976 0.28604898 3.34385343 0.61781233 5 1 C5 2.32 5 3.64 5 5 C3.35 5 1.7 5 0 5 C-0.5625 3.0625 -0.5625 3.0625 -1 1 C-0.67 0.67 -0.34 0.34 0 0 Z " fill="#F8F9F8" transform="translate(294,15)"/>
<path d="M0 0 C-2.75520215 2.95929119 -5.46627288 5.03681826 -9 7 C-8.34 4.69 -7.68 2.38 -7 0 C-3.98968256 -0.93423645 -3.13349732 -1.04449911 0 0 Z " fill="#635FD2" transform="translate(82,11)"/>
<path d="M0 0 C3 1 3 1 4.1875 3.375 C5 6 5 6 5 9 C4.01 9 3.02 9 2 9 C2 7.68 2 6.36 2 5 C1.34 5 0.68 5 0 5 C0 3.35 0 1.7 0 0 Z " fill="#6F68FD" transform="translate(79,34)"/>
<path d="M0 0 C2.475 0.495 2.475 0.495 5 1 C5 1.66 5 2.32 5 3 C6.32 3 7.64 3 9 3 C9.66 4.32 10.32 5.64 11 7 C10.01 6.67 9.02 6.34 8 6 C8 5.34 8 4.68 8 4 C6.35 4.33 4.7 4.66 3 5 C2.01 3.35 1.02 1.7 0 0 Z " fill="#7B73F7" transform="translate(93,22)"/>
<path d="M0 0 C0.99 0 1.98 0 3 0 C3 3.3 3 6.6 3 10 C2.34 9.67 1.68 9.34 1 9 C0.66666667 7.66666667 0.33333333 6.33333333 0 5 C-0.66 4.67 -1.32 4.34 -2 4 C-1.34 2.68 -0.68 1.36 0 0 Z " fill="#6D67EC" transform="translate(81,30)"/>
<path d="M0 0 C-3 2 -3 2 -5 2 C-5.33 3.32 -5.66 4.64 -6 6 C-7.5 4.625 -7.5 4.625 -9 3 C-9 2.34 -9 1.68 -9 1 C-5.64919071 -1.10976881 -3.77897651 -1.0497157 0 0 Z " fill="#F0F1F0" transform="translate(412,39)"/>
<path d="M0 0 C0.99 0.99 1.98 1.98 3 3 C2.67 3.99 2.34 4.98 2 6 C0.35 5.67 -1.3 5.34 -3 5 C-2.01 3.35 -1.02 1.7 0 0 Z " fill="#F2F4F3" transform="translate(232,39)"/>
</svg>
