<?xml version="1.0" encoding="UTF-8"?>
<svg version="1.1" xmlns="http://www.w3.org/2000/svg" width="512" height="512">
<path d="M0 0 C1.40022254 -0.00187075 2.80044457 -0.0041725 4.20066577 -0.00686532 C8.02984415 -0.01295714 11.8590006 -0.01285283 15.68818271 -0.01167095 C19.82534867 -0.01146627 23.96250771 -0.01699205 28.09967041 -0.02172852 C36.19848758 -0.03002139 44.29729748 -0.03278274 52.39611854 -0.03334089 C58.98236024 -0.03381673 65.56859953 -0.03587483 72.15484047 -0.03904152 C90.84550872 -0.04784458 109.53617125 -0.05246147 128.22684159 -0.05171105 C129.23365333 -0.05167109 130.24046507 -0.05163113 131.27778625 -0.05158997 C132.789857 -0.05152864 132.789857 -0.05152864 134.33247463 -0.05146609 C150.66336681 -0.05105977 166.99423592 -0.06062649 183.32512143 -0.07472833 C200.11067979 -0.08910792 216.89622692 -0.09599764 233.6817916 -0.09513456 C243.09868934 -0.09480312 252.51556289 -0.09752673 261.93245506 -0.10831261 C269.9511577 -0.11743847 277.96982518 -0.11957578 285.98853078 -0.11280318 C290.07531507 -0.10954842 294.16203201 -0.10944336 298.24880981 -0.11815643 C301.99879796 -0.12606883 305.74866586 -0.12454215 309.49865124 -0.1158723 C311.47915908 -0.11363209 313.45967078 -0.12112859 315.44016379 -0.12911195 C340.24319149 -0.03458468 360.47542579 7.1635233 378.51435852 24.44230652 C395.60394722 42.29403811 400.4425163 64.57151415 400.35816956 88.63078308 C400.36048047 90.03532192 400.36366119 91.43985954 400.36762404 92.84439468 C400.37589412 96.66230395 400.37188267 100.48011191 400.36565161 104.29802132 C400.36109587 108.43169429 400.36812624 112.56535077 400.37361145 116.69902039 C400.38247399 124.78045229 400.38059748 132.8618469 400.37478617 140.94328022 C400.37025728 147.5151023 400.36966207 154.08691398 400.3718338 160.65873718 C400.37214027 161.59642102 400.37244673 162.53410487 400.37276249 163.50020337 C400.37340198 165.40548166 400.37405041 167.31075994 400.37470767 169.21603823 C400.38040177 187.05423821 400.37386753 204.89241758 400.36310694 222.73061419 C400.35417227 238.01473027 400.35572457 253.29881598 400.36494446 268.58293152 C400.37566337 286.36017735 400.37985253 304.13740516 400.37371993 321.91465378 C400.37308288 323.8126653 400.37245413 325.71067683 400.3718338 327.60868835 C400.37152525 328.54238605 400.3712167 329.47608374 400.3708988 330.4380753 C400.36917672 336.99698525 400.37207643 343.5558837 400.37679291 350.11479187 C400.38241978 358.11507822 400.38084746 366.11532536 400.37023142 374.11560726 C400.36499894 378.1922973 400.36287632 382.26892211 400.36952972 386.34561157 C400.37554189 390.08615246 400.37212842 393.8265684 400.36157462 397.56709814 C400.35832462 399.54239389 400.36476414 401.51769849 400.37168908 403.49298477 C400.26424927 428.2871934 393.06886706 448.51070402 375.79560852 466.54386902 C357.94387693 483.63345772 335.66640089 488.47202679 311.60713196 488.38768005 C310.20259312 488.38999097 308.7980555 488.39317169 307.39352036 488.39713454 C303.57561109 488.40540462 299.75780312 488.40139317 295.93989372 488.39516211 C291.80622075 488.39060637 287.67256427 488.39763674 283.53889465 488.40312195 C275.45746275 488.41198449 267.37606814 488.41010798 259.29463482 488.40429667 C252.72281274 488.39976778 246.15100105 488.39917257 239.57917786 488.4013443 C238.64149401 488.40165077 237.70381017 488.40195723 236.73771167 488.40227298 C234.83243338 488.40291248 232.92715509 488.4035609 231.02187681 488.40421817 C213.18367683 488.40991227 195.34549745 488.40337803 177.50730085 488.39261743 C162.22318476 488.38368276 146.93909906 488.38523507 131.65498352 488.39445496 C113.87773768 488.40517387 96.10050988 488.40936303 78.32326126 488.40323043 C76.42524974 488.40259337 74.52723821 488.40196463 72.62922668 488.4013443 C71.69552899 488.40103575 70.7618313 488.4007272 69.79983974 488.4004093 C63.24092979 488.39868722 56.68203134 488.40158693 50.12312317 488.40630341 C42.12283682 488.41193027 34.12258968 488.41035796 26.12230778 488.39974192 C22.04561774 488.39450944 17.96899293 488.39238681 13.89230347 488.39904022 C10.15176258 488.40505239 6.41134664 488.40163892 2.6708169 488.39108512 C0.69552115 488.38783512 -1.27978345 488.39427464 -3.25506973 488.40119958 C-28.04927836 488.29375977 -48.27278898 481.09837755 -66.30595398 463.82511902 C-83.39554268 445.97338743 -88.23411175 423.69591139 -88.14976501 399.63664246 C-88.15207593 398.23210362 -88.15525665 396.827566 -88.1592195 395.42303085 C-88.16748958 391.60512159 -88.16347813 387.78731362 -88.15724707 383.96940422 C-88.15269133 379.83573124 -88.1597217 375.70207477 -88.16520691 371.56840515 C-88.17406945 363.48697325 -88.17219294 355.40557864 -88.16638163 347.32414532 C-88.16185274 340.75232323 -88.16125753 334.18051155 -88.16342926 327.60868835 C-88.16373573 326.67100451 -88.16404219 325.73332067 -88.16435795 324.76722217 C-88.16499744 322.86194388 -88.16564587 320.95666559 -88.16630313 319.05138731 C-88.17199723 301.21318733 -88.16546299 283.37500795 -88.1547024 265.53681135 C-88.14576773 250.25269526 -88.14732003 234.96860956 -88.15653992 219.68449402 C-88.16725883 201.90724818 -88.17144799 184.13002038 -88.16531539 166.35277176 C-88.16467834 164.45476024 -88.16404959 162.55674871 -88.16342926 160.65873718 C-88.16312071 159.72503949 -88.16281216 158.7913418 -88.16249426 157.82935023 C-88.16077218 151.27044028 -88.16367189 144.71154183 -88.16838837 138.15263367 C-88.17401523 130.15234731 -88.17244292 122.15210017 -88.16182688 114.15181828 C-88.1565944 110.07512824 -88.15447178 105.99850342 -88.16112518 101.92181396 C-88.16713735 98.18127308 -88.16372388 94.44085714 -88.15317008 90.7003274 C-88.14992008 88.72503165 -88.1563596 86.74972705 -88.16328454 84.77444077 C-88.06411822 61.88953019 -82.07674953 42.5304248 -66.89579773 25.13371277 C-66.37630554 24.51882996 -65.85681335 23.90394714 -65.32157898 23.27043152 C-48.46573954 4.8011868 -23.82331177 -0.02866226 0 0 Z " fill="#2D4356" transform="translate(99.89579772949219,11.866287231445313)"/>
<path d="M0 0 C32.34 0 64.68 0 98 0 C96.67030579 3.98908264 95.61199925 6.93936295 93.6875 10.5 C78.26267361 40.94134855 76.97806816 77.25056855 86.84765625 109.578125 C98.67999962 144.71416836 121.55145376 174.40800538 155.0625 191.375 C183.98957437 205.35423133 216.42100259 210.72197458 248 203 C248.77827148 202.81195801 249.55654297 202.62391602 250.35839844 202.43017578 C274.43347906 196.3897813 295.09910621 185.15021115 313 168 C313.88171875 167.19304687 314.7634375 166.38609375 315.671875 165.5546875 C337.08550247 145.29037902 349.46674074 116.80363192 354 88 C354.185625 86.89398438 354.37125 85.78796875 354.5625 84.6484375 C355.46312204 77.13789299 355.13199098 69.5514367 355 62 C354.98324219 60.72253906 354.96648437 59.44507813 354.94921875 58.12890625 C354.26509731 40.28310992 348.85927384 20.59077967 339.78515625 5.11328125 C338 2 338 2 338 0 C370.34 0 402.68 0 436 0 C436.08829544 30.33627609 436.16210824 60.67246356 436.20426132 91.00883026 C436.20926373 94.59589357 436.21444106 98.18295662 436.21972656 101.77001953 C436.2207758 102.48409473 436.22182505 103.19816993 436.22290608 103.93388377 C436.24027879 115.4736847 436.27179905 127.01340536 436.30861118 138.55315877 C436.34610812 150.40705145 436.36825428 162.26090229 436.37635398 174.11485183 C436.3813347 180.76755205 436.3937472 187.42010633 436.42292023 194.07275772 C436.45018749 200.34195442 436.45842208 206.61089565 436.45243073 212.88014603 C436.4535259 215.17378632 436.46141184 217.46743568 436.4768219 219.76102448 C436.60374168 239.63603959 434.39136663 256.87040325 420.12109375 272.00390625 C407.55117243 283.83305873 391.83773849 287.30928324 375.1350708 287.26069641 C373.72603489 287.26371989 372.31700062 287.26761035 370.90796924 287.27228898 C367.04984469 287.28255271 363.19181323 287.2803913 359.33368111 287.27610838 C355.16721729 287.27363816 351.00077571 287.28265908 346.83432007 287.29014587 C338.67653964 287.30288731 330.51879213 287.3046872 322.36100343 287.30234561 C315.72799789 287.30056143 309.09500233 287.30231424 302.46199799 287.30657005 C301.04506056 287.30746284 301.04506056 287.30746284 299.59949814 287.30837366 C297.68036518 287.30958543 295.76123223 287.31079957 293.84209928 287.31201603 C275.84852139 287.32288973 257.85496224 287.32073006 239.86138329 287.31463119 C223.41266518 287.30946393 206.96400633 287.32071274 190.51529995 287.33972941 C173.61451766 287.35911847 156.7137634 287.36736182 139.81296992 287.36360615 C130.32904152 287.36169551 120.84516352 287.36416822 111.3612442 287.37832069 C103.28608349 287.39024918 95.21100421 287.39162304 87.13584235 287.37953053 C83.01890548 287.37365174 78.90211744 287.37251457 74.78519058 287.38453293 C71.00992407 287.39542541 67.23493006 287.39224874 63.45967612 287.37827124 C61.46073993 287.37439232 59.46179149 287.38514396 57.46288419 287.39656812 C40.64919675 287.296452 26.61942152 282.40338626 14.40625 270.62890625 C4.22438663 259.50488994 -0.16712106 245.07800702 -0.12025452 230.28739929 C-0.12110894 229.3030746 -0.12196337 228.31874991 -0.12284368 227.3045972 C-0.12449195 224.00342069 -0.11898775 220.70229489 -0.11352539 217.40112305 C-0.11324335 215.0358836 -0.11340158 212.67064406 -0.1139679 210.30540466 C-0.11425522 203.88027817 -0.10836894 197.45517029 -0.10139394 191.03004813 C-0.09530528 184.99687477 -0.09477109 178.96369936 -0.09374207 172.93052349 C-0.09155409 160.98159223 -0.0849009 149.03266779 -0.07543945 137.08374023 C-0.06625876 125.47729527 -0.05918114 113.87085216 -0.05493164 102.2644043 C-0.05466892 101.54883898 -0.05440619 100.83327365 -0.05413551 100.09602454 C-0.05283046 96.50620062 -0.05156675 92.91637669 -0.05032361 89.32655275 C-0.03995892 59.55102951 -0.02152487 29.77551782 0 0 Z " fill="#FB8779" transform="translate(38,187)"/>
<path d="M0 0 C1.19463379 -0.00445784 2.38926759 -0.00891569 3.62010241 -0.01350862 C5.57561879 -0.01323207 5.57561879 -0.01323207 7.57064056 -0.01294994 C8.97652395 -0.01625173 10.38240639 -0.01997796 11.78828764 -0.02409142 C15.64704265 -0.03408372 19.5057821 -0.03782374 23.36454821 -0.04048073 C27.52835529 -0.04439202 31.69215015 -0.05396976 35.8559494 -0.0626936 C45.90921815 -0.08243458 55.96248787 -0.09252114 66.01577115 -0.10142139 C70.75386447 -0.1058081 75.49195669 -0.11117391 80.23004913 -0.11641026 C95.98699206 -0.13342004 111.74393431 -0.14791336 127.50088501 -0.155159 C131.5877355 -0.15706879 135.67458599 -0.15898913 139.76143646 -0.16094494 C141.28502381 -0.16167055 141.28502381 -0.16167055 142.8393907 -0.16241082 C159.28689602 -0.17070798 175.73432854 -0.19604072 192.18180209 -0.22852562 C209.08026654 -0.26162829 225.97869403 -0.27961065 242.87719107 -0.28280324 C252.36012126 -0.28496534 261.84294528 -0.29367012 271.32584381 -0.31926441 C279.40320026 -0.34101525 287.48042473 -0.34900031 295.55780715 -0.33929763 C299.6750282 -0.33476563 303.79197721 -0.33657465 307.90916061 -0.35605907 C311.68713815 -0.3737829 315.46464703 -0.37261934 319.24263018 -0.35716178 C321.23821072 -0.35369072 323.23379671 -0.36974284 325.22930765 -0.38676625 C341.783509 -0.2699005 356.51142917 5.09799585 368.60030365 16.51312733 C378.57034322 27.589115 383.15003567 40.06608894 383.07320404 54.79193592 C383.07335007 55.53408344 383.07349609 56.27623096 383.07364655 57.04086781 C383.07295404 59.47566191 383.06519284 61.91037796 383.0573349 64.34515858 C383.05546837 66.04052151 383.05404557 67.73588499 383.05304718 69.43124866 C383.04924054 73.87982152 383.03942616 78.32836139 383.0283432 82.77692127 C383.01808916 87.32179792 383.01354102 91.86667993 383.00850677 96.41156483 C382.99780215 105.31913135 382.98074809 114.22667346 382.95967865 123.13422108 C367.63451085 123.39185486 352.30944317 123.58548414 336.98259258 123.70415497 C329.86492203 123.76073657 322.74860141 123.83778701 315.63179779 123.96405506 C309.42438014 124.07413551 303.21794042 124.14476253 297.00957376 124.16919452 C293.72533441 124.18346629 290.44452344 124.22255792 287.16102409 124.2972517 C264.46542113 124.79283144 264.46542113 124.79283144 258.390172 119.28697395 C256.36056015 117.0508793 254.66614385 114.62145448 252.95967865 112.13422108 C250.46939583 109.90038339 247.83437147 107.97340377 245.08467865 106.07172108 C244.02083954 105.33284657 244.02083954 105.33284657 242.93550873 104.5790453 C228.3026834 94.7479861 212.04008824 88.26110265 194.95967865 84.13422108 C193.87734955 83.86956043 193.87734955 83.86956043 192.77315521 83.59955311 C174.19979067 79.27946901 153.3593388 79.10238913 134.95967865 84.13422108 C133.7376474 84.42426014 132.51561615 84.7142992 131.25655365 85.01312733 C111.10170096 89.96889872 86.90626685 99.97105078 73.10571384 116.33217239 C69.23419865 120.78239187 66.38911008 123.66665575 60.35968781 124.21651173 C58.24456041 124.24232749 56.12845886 124.21927416 54.01412201 124.15594959 C52.85213287 124.15726383 51.69014374 124.15857807 50.49294281 124.15993214 C46.67689546 124.15369401 42.86487295 124.08384683 39.0495224 124.01312733 C36.39430805 123.99632919 33.73931254 123.98308109 31.08408356 123.97453785 C24.82569632 123.94666002 18.56873861 123.87294037 12.31097847 123.78239244 C5.18172494 123.68149281 -1.94760001 123.63223666 -9.07739079 123.58713353 C-23.7324355 123.493278 -38.38635841 123.33516601 -53.04032135 123.13422108 C-53.11015743 113.43233676 -53.16330197 103.7305404 -53.19575787 94.0284586 C-53.21134337 89.5222806 -53.23244986 85.01627592 -53.26663971 80.51019764 C-53.29948924 76.15297486 -53.31722772 71.79591767 -53.32495308 67.43858051 C-53.33045105 65.7849845 -53.34118578 64.13139646 -53.35751152 62.47787189 C-53.53444326 43.79669912 -50.00756989 28.42396063 -36.60282135 14.54047108 C-26.60190545 5.14936712 -13.72940747 0.02386285 0 0 Z " fill="#F7DDAF" transform="translate(91.04032135009766,37.86577892303467)"/>
<path d="M0 0 C22.54167851 18.46871645 39.75114243 44.4720038 42.77905273 74.0546875 C44.20180478 106.29808796 38.96535421 136.29827193 17.21264648 161.40625 C16.40956055 162.28023437 15.60647461 163.15421875 14.77905273 164.0546875 C14.33190918 164.54420898 13.88476562 165.03373047 13.42407227 165.53808594 C-4.41025257 184.84789045 -30.49846656 199.74242282 -57.22094727 201.0546875 C-91.63123417 202.39673361 -120.94470401 194.58246242 -146.60375977 170.984375 C-167.75351101 150.93315361 -180.58200688 123.86702843 -181.43579102 94.7109375 C-182.05847759 61.90084956 -172.26824096 33.96631178 -149.59814453 10.03076172 C-110.35712907 -30.08750975 -44.30476703 -34.91787666 0 0 Z " fill="#FEFEFE" transform="translate(325.220947265625,166.9453125)"/>
<path d="M0 0 C11.88 0 23.76 0 36 0 C36.09055505 30.33625047 36.16210825 60.67247579 36.20426132 91.00883026 C36.20926373 94.59589357 36.21444106 98.18295662 36.21972656 101.77001953 C36.2207758 102.48409473 36.22182505 103.19816993 36.22290608 103.93388377 C36.24027879 115.4736847 36.27179905 127.01340536 36.30861118 138.55315877 C36.34610812 150.40705145 36.36825428 162.26090229 36.37635398 174.11485183 C36.3813347 180.76755205 36.3937472 187.42010633 36.42292023 194.07275772 C36.45018749 200.34195442 36.45842208 206.61089565 36.45243073 212.88014603 C36.4535259 215.17378632 36.46141184 217.46743568 36.4768219 219.76102448 C36.60374168 239.63603959 34.39136663 256.87040325 20.12109375 272.00390625 C7.55117243 283.83305873 -8.16226151 287.30928324 -24.8649292 287.26069641 C-26.27396511 287.26371989 -27.68299938 287.26761035 -29.09203076 287.27228898 C-32.95015531 287.28255271 -36.80818677 287.2803913 -40.66631889 287.27610838 C-44.83278271 287.27363816 -48.99922429 287.28265908 -53.16567993 287.29014587 C-61.32346036 287.30288731 -69.48120787 287.3046872 -77.63899657 287.30234561 C-84.27200211 287.30056143 -90.90499767 287.30231424 -97.53800201 287.30657005 C-98.95493944 287.30746284 -98.95493944 287.30746284 -100.40050186 287.30837366 C-102.31963482 287.30958543 -104.23876777 287.31079957 -106.15790072 287.31201603 C-124.15147861 287.32288973 -142.14503776 287.32073006 -160.13861671 287.31463119 C-176.58733482 287.30946393 -193.03599367 287.32071274 -209.48470005 287.33972941 C-226.38548234 287.35911847 -243.2862366 287.36736182 -260.18703008 287.36360615 C-269.67095848 287.36169551 -279.15483648 287.36416822 -288.6387558 287.37832069 C-296.71391651 287.39024918 -304.78899579 287.39162304 -312.86415765 287.37953053 C-316.98109452 287.37365174 -321.09788256 287.37251457 -325.21480942 287.38453293 C-328.99007593 287.39542541 -332.76506994 287.39224874 -336.54032388 287.37827124 C-338.53926007 287.37439232 -340.53820851 287.38514396 -342.53711581 287.39656812 C-359.36981029 287.29633883 -373.31369834 282.38359553 -385.58203125 270.6640625 C-389.09654294 266.79185414 -391.65595941 262.65541162 -394 258 C-394.38027344 257.30648438 -394.76054687 256.61296875 -395.15234375 255.8984375 C-396 254 -396 254 -396 251 C-395.28973862 250.99902319 -394.57947724 250.99804638 -393.84769279 250.99703997 C-351.72717065 250.93873457 -309.60670049 250.86491254 -267.48624193 250.77101372 C-262.42580541 250.75974591 -257.36536862 250.7486074 -252.30493164 250.73754883 C-251.29751388 250.73534514 -250.29009613 250.73314146 -249.25215056 250.730871 C-232.9523612 250.69552405 -216.65257189 250.67064523 -200.35275844 250.64965298 C-183.62057144 250.62787019 -166.88843406 250.59479624 -150.15628928 250.55129844 C-139.83640136 250.52482443 -129.51657524 250.50709776 -119.19665506 250.50065396 C-112.11443975 250.49538707 -105.03230212 250.47912648 -97.95012847 250.45433434 C-93.86756794 250.44036388 -89.78514633 250.4311318 -85.70256042 250.43499184 C-81.95712225 250.43842554 -78.21197975 250.42790364 -74.46660205 250.40676448 C-72.4859383 250.39907987 -70.5052342 250.40589992 -68.52456981 250.41341704 C-57.35544998 250.32563864 -46.75415137 248.57963457 -36.8125 243.3125 C-36.13888428 242.96219727 -35.46526855 242.61189453 -34.77124023 242.25097656 C-19.12155099 233.86996115 -8.40546459 220.53007504 -3.23306561 203.4705019 C-0.6290546 193.53367265 -0.55777739 183.99811503 -0.56762695 173.80737305 C-0.55859369 171.90399547 -0.54826268 170.00062368 -0.53674316 168.09725952 C-0.50933069 162.96801196 -0.49991019 157.83887525 -0.49388909 152.70956397 C-0.48446416 147.33504386 -0.45825762 141.96060522 -0.43388367 136.58613586 C-0.39032785 126.42574406 -0.36171395 116.26536817 -0.33856028 106.10491163 C-0.3114499 94.53041799 -0.26754211 82.95600676 -0.22227156 71.38157213 C-0.1295817 47.58774757 -0.06004631 23.79393087 0 0 Z " fill="#E07068" transform="translate(438,187)"/>
<path d="M0 0 C18.30522211 14.02102119 28.81618285 38.79108145 32.62280273 61.04101562 C36.51581272 91.58035609 29.70462275 120.96792489 11.84765625 146.01953125 C9.65968113 148.78516346 7.38595767 151.40340402 5 154 C4.55285645 154.48952148 4.10571289 154.97904297 3.64501953 155.48339844 C-14.1893053 174.79320295 -40.2775193 189.68773532 -67 191 C-99.15447846 192.25406664 -128.44479785 185.9113042 -153 164 C-155.07457783 161.72552021 -157.05821517 159.38846836 -159 157 C-158.09181519 157.22719727 -158.09181519 157.22719727 -157.1652832 157.45898438 C-119.95180008 166.49391351 -84.82252824 162.84327753 -52 143 C-47.79292186 140.22005791 -43.86869432 137.23193827 -40 134 C-39.01644531 133.18015625 -38.03289062 132.3603125 -37.01953125 131.515625 C-14.18219806 111.84419193 0.20185536 83.8511033 4 54 C4.23825789 48.85687853 4.24304024 43.71052171 4.25 38.5625 C4.25200409 37.84612366 4.25400818 37.12974731 4.256073 36.3916626 C4.26326081 25.93060252 3.58969226 16.17091572 1 6 C0.64881357 4.00305754 0.30989174 2.00376601 0 0 Z " fill="#ECECEC" transform="translate(335,177)"/>
<path d="M0 0 C15.55003127 7.77501564 26.09407354 16.2781159 31.9375 32.9375 C33.69361396 38.78733658 34.14525218 44.57683652 34.11352539 50.65771484 C34.11367142 51.39986237 34.11381744 52.14200989 34.1139679 52.90664673 C34.11327539 55.34144083 34.10551419 57.77615689 34.09765625 60.2109375 C34.09578972 61.90630044 34.09436692 63.60166392 34.09336853 65.29702759 C34.08956189 69.74560044 34.07974751 74.19414032 34.06866455 78.6427002 C34.05841051 83.18757684 34.05386237 87.73245885 34.04882812 92.27734375 C34.0381235 101.18491027 34.02106944 110.09245239 34 119 C18.6748322 119.25763378 3.34976452 119.45126307 -11.97708607 119.56993389 C-19.09475662 119.6265155 -26.21107724 119.70356593 -33.32788086 119.82983398 C-39.53529851 119.93991443 -45.74173823 120.01054145 -51.95010489 120.03497344 C-55.23434424 120.04924521 -58.51515521 120.08833684 -61.79865456 120.16303062 C-84.49436043 120.65861261 -84.49436043 120.65861261 -90.56607342 115.15446949 C-92.59558859 112.91762457 -94.29041481 110.4857252 -96 108 C-98.5315062 105.74429452 -101.21139925 103.79990574 -104 101.875 C-104.69988037 101.38418945 -105.39976074 100.89337891 -106.12084961 100.38769531 C-114.22833429 94.88934175 -123.03980238 90.89488283 -132 87 C-132 86.67 -132 86.34 -132 86 C-88.44 86 -44.88 86 0 86 C0 57.62 0 29.24 0 0 Z " fill="#E3C597" transform="translate(440,42)"/>
<path d="M0 0 C0.33 0 0.66 0 1 0 C1 14.19 1 28.38 1 43 C16.21281677 43.02749011 31.42502117 43.0258277 46.63774681 42.97153378 C53.70215389 42.94724595 60.76613321 42.93584424 67.83056641 42.95532227 C74.6519486 42.97409329 81.47246294 42.95623415 88.29375076 42.91632271 C90.89234587 42.9070493 93.49101442 42.90992214 96.08958054 42.92530632 C99.73822973 42.94480477 103.38422605 42.92059111 107.03271484 42.88647461 C108.10014923 42.9022908 109.16758362 42.91810699 110.2673645 42.93440247 C117.3008043 42.80837559 121.32263921 41.10963692 126.82619667 36.72057438 C130.01930741 34.19321394 133.49506662 32.54723815 137.1875 30.875 C137.91815674 30.54153564 138.64881348 30.20807129 139.40161133 29.86450195 C169.43511801 16.42341012 203.49534428 14.97715991 234.49609375 26.171875 C242.00297648 29.08159619 249.01696465 33.02232163 256 37 C251.85526186 38.23633884 248.9198404 37.55228664 244.6875 36.625 C226.23162549 32.63151452 206.32617253 31.98826502 188 37 C186.77796875 37.29003906 185.5559375 37.58007812 184.296875 37.87890625 C164.14202231 42.83467764 139.9465882 52.8368297 126.14603519 69.19795132 C122.27452 73.64817079 119.42943143 76.53243467 113.40000916 77.08229065 C111.28488176 77.10810641 109.16878021 77.08505308 107.05444336 77.02172852 C105.89245422 77.02304276 104.73046509 77.02435699 103.53326416 77.02571106 C99.71721681 77.01947293 95.9051943 76.94962576 92.08984375 76.87890625 C89.4346294 76.86210811 86.77963389 76.84886001 84.12440491 76.84031677 C77.86601767 76.81243894 71.60905996 76.73871929 65.35129982 76.64817137 C57.52158454 76.53735817 49.69163285 76.48836502 41.86132812 76.43945312 C27.90644093 76.35201326 13.95466916 76.17170412 0 76 C0 50.92 0 25.84 0 0 Z " fill="#E3C597" transform="translate(38,85)"/>
<path d="M0 0 C6.21501605 2.79555741 11.10638065 8.01562373 13.6484375 14.34765625 C14.55097874 21.69392217 14.21361853 28.32808127 9.6484375 34.34765625 C4.50503109 40.06399907 -1.2784446 42.83851651 -8.8515625 43.78515625 C-16.08850482 42.88053846 -20.84900235 39.29557119 -25.90625 34.2265625 C-30.6104066 28.11115892 -30.03552417 20.69807978 -29.3515625 13.34765625 C-24.14452368 1.68388928 -12.09328174 -3.35478082 0 0 Z " fill="#2E4456" transform="translate(418.3515625,80.65234375)"/>
<path d="M0 0 C8.25 0 16.5 0 25 0 C23.67030579 3.98908264 22.61199925 6.93936295 20.6875 10.5 C6.89234587 37.72514242 4.64325542 69.44888983 11 99 C11.39675555 101.04148765 11.79275594 103.08312245 12.1875 105.125 C12.455625 106.40375 12.72375 107.6825 13 109 C1.17916464 98.96688357 -4.89150132 73.95572312 -6.7890625 59.28125 C-8.10388031 38.82852844 -6.16078457 19.54455796 0 0 Z " fill="#E07068" transform="translate(111,187)"/>
</svg>
